<svg xmlns="http://www.w3.org/2000/svg" width="1984.276" height="1097.305" viewBox="0 0 1984.276 1097.305">
    <path id="prefix__blob_green-01" d="M862.308 552.976c-130.8-82.743-280.7-116.7-428.6-95.453q-3.729.535-7.447 1.1c-141.51 21.431-303.524 103.99-385.539 348.5q-2.463 7.34-4.81 14.576c-87.622 270.069 38.452 465.567 260.8 492.51 76.981 9.328 223.917-12.151 314.563 3.7 5.974 1.045 11.953 2.06 17.946 2.943 30.171 4.446 154.99 27.442 336.88 122.98 234.836 123.348 496.758 138.728 739.118 41.38q6.7-2.691 13.455-5.5s232.283-111.11 264.433-313.807c28.793-181.526 4.019-437.022-305.249-475.589-169.615-21.151-279.838 50.663-353.641 56.363-171.914 13.279-238.2-49.023-284.723-81.623z" transform="translate(-7.858 -451.345)" style="fill:#caffce;opacity:.497"/>
</svg>
