<svg xmlns="http://www.w3.org/2000/svg" width="497.257" height="263.844" viewBox="0 0 497.257 263.844">
    <defs>
        <linearGradient id="prefix__linear-gradient" x1=".5" x2=".5" y1="1" gradientUnits="objectBoundingBox">
            <stop offset="0" stop-color="gray" stop-opacity=".251"/>
            <stop offset=".54" stop-color="gray" stop-opacity=".122"/>
            <stop offset="1" stop-color="gray" stop-opacity=".102"/>
        </linearGradient>
        <style>
            .prefix__cls-6{fill:#3dace4}.prefix__cls-5{opacity:.1}.prefix__cls-3{fill:#f7d6c8}.prefix__cls-4{fill:#efb7b9}.prefix__cls-7{opacity:.05}.prefix__cls-8{fill:#c3705a}.prefix__cls-9{fill:#ecb4b6}.prefix__cls-10{fill:#463a3e}.prefix__cls-11{fill:#c17174}
        </style>
    </defs>
    <g id="prefix__undraw_community_8nwl" transform="translate(-.001 -.051)">
        <path id="prefix__Path_82" d="M65.576 191.351c.806 5.111 2.864 10.048 2.882 15.218.067 16.892-20.427 27.266-23.565 43.863-1.862 9.847 2.963 19.908 9.766 27.253s15.477 12.64 23.466 18.682a150.265 150.265 0 0 1 49.229 65.122 62.492 62.492 0 0 1 4.328 16.086c.416 4.028.219 8.15 1.164 12.085 3.737 15.616 22.688 21.676 38.711 22.688a169.766 169.766 0 0 0 75.524-12.613c5.371-2.238 10.916-4.78 16.681-4.149 4.61.506 8.723 3 12.769 5.268A169.377 169.377 0 0 0 314.3 416.4c7.3 2.014 14.954 3.545 22.406 2.238 22.379-3.948 34.271-31.089 56.229-37.024 15.191-4.1 31 3.066 44.623 10.939s27.687 16.941 43.415 16.963c20.982.027 38.232-15.853 52.465-31.268 2.985-3.236 6.02-6.62 7.443-10.787 2.887-8.459-1.79-17.961-8.705-23.645s-15.634-8.5-23.963-11.753a207.8 207.8 0 0 1-40.179-20.982c-8.146-5.461-16.037-11.637-21.609-19.693-4.794-6.946-7.671-15-10.885-22.8-7.045-17.093-17.008-34.463-33.644-42.484-13.584-6.553-29.361-5.818-44.44-5.993-22.218-.246-45-2.918-64.7-13.195-16.636-8.678-30.3-22.379-47.184-30.583-26.855-13.038-57.554-10.482-86.49-9.99-13.906.237-30.435 1.625-43.791-2.932-9.878-3.37-14.962-10.258-26.309-7.483-15.516 3.779-25.882 19.655-23.406 35.423z" data-name="Path 82" transform="translate(-44.49 -155.23)" style="opacity:.1;fill:#3dace4"/>
        <path id="prefix__Path_83" d="M504.408 351.837a11.189 11.189 0 0 1 .21-7.1c1.343-3.473 4.615-5.98 5.765-9.529 2.139-6.593-3.625-12.765-7.161-18.74a31.473 31.473 0 0 1-4.212-18.351c.55-6.875 3.366-13.45 3.581-20.342.192-6.423-1.889-12.671-3.943-18.758-1.7-5.031-3.424-10.12-6.293-14.586-5.425-8.446-15.061-13.754-24.97-14.631-4.677-.416-9.251 1.105-13.848.51-6.382-.824-12.416-2.48-18.924-2.685-6.181-.184-13.016.6-17.227 5.129-3.218 3.469-4.247 8.477-7.193 12.183-4.18 5.263-11.493 7.063-16.113 11.933a16.905 16.905 0 0 0-3.818 16.305c.64 2.077 1.687 4.006 2.368 6.069 2.86 8.62-.9 17.84-3.164 26.631a4.029 4.029 0 0 0-.134 2.238c.358 1.074 1.486 1.638 2.421 2.274 3.061 2.086 4.623 5.863 4.923 9.556s-.555 7.372-1.4 10.979c-2.144 9.171-4.825 19-11.892 25.1a64.561 64.561 0 0 0-4.538-8.844c-4.324-7.009-7.524-15.665-7.577-23.95a.308.308 0 0 1 0-.076c0-.448.022-.9.049-1.343.559-9.775 4.785-19.206 4.691-28.936q0-1.182-.067-2.368c-.55-8.329-4.552-16.032-9.139-23.005-3.424-5.205-7.282-10.232-12.223-14.023-7.64-5.814-17.348-8.338-26.886-9.672s-18.216-2.587-27.83-3.232c-10.339-.694-21.716-1.083-29.889 5.281-10.657 8.3-11.248 24.326-19.371 35.112-4.834 6.418-12.532 11.377-15.079 18.668a45.088 45.088 0 0 1-1.719-5.483l-.081-.372a53.369 53.369 0 0 0 2.072-27.405 33.721 33.721 0 0 0 .309-4.476 17.624 17.624 0 0 0-.524-4.838c-1.15-4.359-4.324-7.846-7.39-11.154a32.727 32.727 0 0 0-3.625-3.513 53.136 53.136 0 0 0-90.605 52.807 13.911 13.911 0 0 1-3.746 8.173c-.989.98-2.269 2.207-2.054 3.46a1.687 1.687 0 0 0 .143 1.052 2.944 2.944 0 0 0 .9.98 16.113 16.113 0 0 0 10.961 3.267 45.832 45.832 0 0 0 18.458 23.695q0 .448-.031.868c0 .5-.04.989-.063 1.49v.206c0-.045-15.585 20.315-29.988 21.072-7.689.4-14.4 5.59-19.483 11.521-6.1 7.116-9.874 15.3-10.2 17.563-.6 4.154-4.749 24.339-4.749 24.339h119.655c-1.414 7.269-3.321 16.529-3.321 16.529h193.707c-.448-6.226-.944-11.982-1.405-16.856H427.1l-.027.148h112.34l7.125-10.693c-1.768-31.151-20.145-48.28-42.13-50.177zm-279.691-34.8a29.021 29.021 0 0 0 8.056 2.9 4.843 4.843 0 0 0 3.63-.277 4.171 4.171 0 0 0 1.464-2.072l.054.134c3.021 7.609 5.818 15.459 6.36 23.632.049.77.081 1.54.085 2.314a33.47 33.47 0 0 1-2.824 13.544 261.069 261.069 0 0 1-29.213-17.9l-.631-.269c0 .049.219.609.479 1.553.063.228.13.479.2.747-.64-2.068-1.222-4.18-1.732-6.333l-.175-.765a45.89 45.89 0 0 0 14.251-17.2z" data-name="Path 83" transform="translate(-71.901 -192.681)"/>
        <path id="prefix__Path_89" d="M776.98 236.75c-6.083-.184-12.814.591-16.954 5.049-3.169 3.411-4.181 8.343-7.081 11.991-4.113 5.178-11.306 6.951-15.862 11.744a16.641 16.641 0 0 0-3.76 16.05c.631 2.041 1.66 3.943 2.332 5.971 2.815 8.5-.859 17.558-3.133 26.21a3.944 3.944 0 0 0-.13 2.211c.349 1.056 1.464 1.611 2.381 2.238 3.012 2.054 4.552 5.769 4.825 9.4s-.546 7.255-1.374 10.8c-2.2 9.4-4.973 19.519-12.6 25.44-3.223 2.529-7.528 4.579-8.37 8.607-.985 4.717 3.518 8.728 7.837 10.863 12.68 6.266 27.4 6.356 41.271 9.148 12.214 2.462 24.4 7.125 36.759 5.532 5.51-.707 10.778-2.645 15.992-4.565l32.467-11.964a8.446 8.446 0 0 0 2.551-1.285c1.956-1.629 2.023-4.726.958-7.04s-3-4.086-4.7-5.984c-3.706-4.149-6.526-10.008-4.5-15.191 1.343-3.419 4.543-5.886 5.675-9.4 2.1-6.49-3.581-12.568-7.027-18.449a30.977 30.977 0 0 1-4.144-18.042c.542-6.767 3.312-13.239 3.513-20.025.188-6.32-1.857-12.469-3.88-18.463-1.669-4.95-3.37-9.959-6.194-14.358-5.34-8.311-14.824-13.535-24.581-14.4-4.605-.407-9.1 1.088-13.629.506-6.293-.772-12.237-2.402-18.642-2.594z" class="prefix__cls-3" data-name="Path 89" transform="translate(-416.063 -200.222)"/>
        <path id="prefix__Path_90" d="M836.181 503.8s-36.809-23.077-22.5-49.681a41.049 41.049 0 0 0 5.076-17.281 37.361 37.361 0 0 0 0-4.2v-.2q-.072-1.083-.192-2.13a43.375 43.375 0 0 0-10.728-23.2s61.054-17.818 50.831-1.754c-4.744 7.457-3.325 14.77-.148 22.339.336.8.694 1.6 1.065 2.4 3.67 7.98 8.764 16.247 10.187 25.212 2.922 18.395-33.591 48.495-33.591 48.495z" class="prefix__cls-4" data-name="Path 90" transform="translate(-466.182 -289.664)"/>
        <path id="prefix__Path_91" d="M858.671 405.344c-4.744 7.457-3.325 14.77-.148 22.339a41.253 41.253 0 0 1-39.969 2.632A43.313 43.313 0 0 0 807.84 407.1s61.06-17.824 50.831-1.756z" class="prefix__cls-5" data-name="Path 91" transform="translate(-466.182 -289.662)"/>
        <circle id="prefix__Ellipse_20" cx="41.19" cy="41.19" r="41.19" class="prefix__cls-4" data-name="Ellipse 20" transform="translate(328.804 61.346)"/>
        <path id="prefix__Path_92" d="M832.24 474.282v-.2l.049-.081a1.325 1.325 0 0 0-.049.281z" class="prefix__cls-5" data-name="Path 92" transform="translate(-479.661 -331.298)"/>
        <path id="prefix__Path_93" d="M839.316 542.595s-36.809-23.077-22.5-49.681a41.05 41.05 0 0 0 5.076-17.281c.837 6.57 5.371 14.739 13.624 26.044 3.581 4.923 5.12 11.807 5.608 18.686l.819.6 4.028-2.435c.448-7.609 1.987-15.3 5.63-20.75 9.574-14.322 11.847-21.484 11.14-28.9 3.67 7.98 8.763 16.247 10.187 25.212 2.901 18.41-33.612 48.505-33.612 48.505z" class="prefix__cls-5" data-name="Path 93" transform="translate(-469.317 -328.464)"/>
        <path id="prefix__Path_94" d="M815.844 486.759c-21.931-1.593-35.806-18.619-35.806-18.619 1.168 7.976-.73 15.115-10.957 30.435-3.621 5.434-5.156 13.11-5.6 20.736l-4.028 2.435-.819-.6c-.488-6.875-2.023-13.767-5.608-18.686-10.223-14.023-14.77-23.225-13.584-30.529 0 0-11.248 18.257-33.157 19.72s-40.316 16.949-42.075 45.286l7.009 9.641h69.137l-.027.148h110.552l7.036-10.531c-1.759-30.937-20.141-47.842-42.073-49.436z" class="prefix__cls-6" data-name="Path 94" transform="translate(-386.837 -328.06)"/>
        <path id="prefix__Path_95" d="M815.844 486.759c-21.931-1.593-35.806-18.619-35.806-18.619 1.168 7.976-.73 15.115-10.957 30.435-3.621 5.434-5.156 13.11-5.6 20.736l-4.028 2.435-.819-.6c-.488-6.875-2.023-13.767-5.608-18.686-10.223-14.023-14.77-23.225-13.584-30.529 0 0-11.248 18.257-33.157 19.72s-40.316 16.949-42.075 45.286l7.009 9.641h69.137l-.027.148h110.552l7.036-10.531c-1.759-30.937-20.141-47.842-42.073-49.436z" class="prefix__cls-7" data-name="Path 95" transform="translate(-386.837 -328.06)"/>
        <path id="prefix__Path_96" d="M844.193 303.818c-1.79 4.431-4.968 8.173-8.441 11.458-4.8 4.543-10.831 8.544-17.429 8.235a26.734 26.734 0 0 0 7.524-12.362c-4.162 2.426-7.309 6.266-11.283 9s-9.592 4.145-13.477 1.289a40.4 40.4 0 0 0 16.86-15.929c-9.435 2.448-14.278 13.074-22.777 17.845a25.838 25.838 0 0 1-13.208 2.981c-3.245-.067-6.861-.824-8.669-3.518a9.991 9.991 0 0 1-1.343-5.429c-.2-8.585 3.3-17.008 8.683-23.69s12.532-11.762 20.177-15.705a27.9 27.9 0 0 1 8.589-3.133c3.769-.546 7.609.255 11.306 1.105a64.475 64.475 0 0 1 14.067 4.476c9.448 4.677 13.575 13.154 9.421 23.377z" class="prefix__cls-5" data-name="Path 96" transform="translate(-446.351 -221.189)"/>
        <path id="prefix__Path_97" d="M844.193 302.508c-1.79 4.431-4.968 8.173-8.441 11.458-4.8 4.543-10.831 8.544-17.429 8.235a26.734 26.734 0 0 0 7.524-12.362c-4.162 2.426-7.309 6.266-11.283 9s-9.592 4.145-13.477 1.289a40.4 40.4 0 0 0 16.86-15.929c-9.435 2.448-14.278 13.074-22.777 17.845a25.838 25.838 0 0 1-13.208 2.981c-3.245-.067-6.861-.824-8.669-3.518a9.991 9.991 0 0 1-1.343-5.429c-.2-8.584 3.3-17.008 8.683-23.69s12.532-11.762 20.177-15.705a27.9 27.9 0 0 1 8.589-3.133c3.769-.546 7.609.255 11.306 1.106a64.475 64.475 0 0 1 14.067 4.476c9.448 4.668 13.575 13.153 9.421 23.376z" class="prefix__cls-3" data-name="Path 97" transform="translate(-446.351 -220.465)"/>
        <circle id="prefix__Ellipse_21" cx="52.29" cy="52.29" r="52.29" class="prefix__cls-8" data-name="Ellipse 21" transform="translate(61.538 32.021)"/>
        <path id="prefix__Path_98" d="M304.736 462.644s-47.891 12.268-49.077 13.427-40.313 3.214-28.922-20.741c4.185-8.795 5.926-20.741 6.454-32.337.022-.492.045-.98.063-1.468a238.868 238.868 0 0 0-1.84-37.476s55.5-21.931 51.413 11.4a69.631 69.631 0 0 0 1.678 24.451c.618 2.614 1.343 5.17 2.148 7.649a130.427 130.427 0 0 0 18.083 35.095z" class="prefix__cls-9" data-name="Path 98" transform="translate(-144.02 -277.695)"/>
        <path id="prefix__Path_99" d="M292.831 419.916a45 45 0 0 1-51.252 1.629 238.868 238.868 0 0 0-1.84-37.476s55.5-21.931 51.413 11.4a69.829 69.829 0 0 0 1.679 24.447z" class="prefix__cls-5" data-name="Path 99" transform="translate(-152.35 -277.706)"/>
        <circle id="prefix__Ellipse_22" cx="44.986" cy="44.986" r="44.986" class="prefix__cls-9" data-name="Ellipse 22" transform="translate(68.694 60.21)"/>
        <path id="prefix__Path_100" d="M304.736 519.451s-47.891 12.268-49.077 13.427-40.313 3.214-28.922-20.741c4.185-8.8 5.926-20.741 6.454-32.337.448 6.06 3.912 20.736 4.355 25.619a4.258 4.258 0 0 0 .17.841c.649 2.171 2.963 4.673 5.751 7.045l.166.139a21.336 21.336 0 0 0 25.127 1.678 113.3 113.3 0 0 0 11.44-8.244c5.21-4.3 6.834-10.1 7.036-15.218a32.582 32.582 0 0 0-.582-7.331 130.35 130.35 0 0 0 18.082 35.122z" class="prefix__cls-5" data-name="Path 100" transform="translate(-144.02 -334.502)"/>
        <path id="prefix__Path_101" d="M297.448 553.606H102s4.091-19.863 4.673-23.954c.318-2.238 4.028-10.294 10.039-17.29 5-5.818 11.606-10.943 19.174-11.342 14.166-.743 29.5-20.741 29.5-20.741.34 5.818 3.93 21.014 4.382 26a4.255 4.255 0 0 0 .17.841c.649 2.171 2.963 4.673 5.751 7.045l.166.139a21.332 21.332 0 0 0 25.127 1.683 113.806 113.806 0 0 0 11.44-8.244c5.21-4.3 6.835-10.1 7.036-15.218a33.706 33.706 0 0 0-1.222-10.066 15.935 15.935 0 0 0-.474-1.526l.622.264s26.465 19.246 50.71 27.114a28.994 28.994 0 0 1 7.949 4.028 34.366 34.366 0 0 1 5.4 4.847 50.251 50.251 0 0 1 8.057 12.394 85.066 85.066 0 0 1 6.948 24.026z" class="prefix__cls-6" data-name="Path 101" transform="translate(-76.26 -334.767)"/>
        <path id="prefix__Path_102" d="M297.448 553.606H102s4.091-19.863 4.673-23.954c.318-2.238 4.028-10.294 10.039-17.29 5-5.818 11.606-10.943 19.174-11.342 14.166-.743 29.5-20.741 29.5-20.741.34 5.818 3.93 21.014 4.382 26a4.255 4.255 0 0 0 .17.841c.649 2.171 2.963 4.673 5.751 7.045l.166.139a21.332 21.332 0 0 0 25.127 1.683 113.806 113.806 0 0 0 11.44-8.244c5.21-4.3 6.835-10.1 7.036-15.218a33.706 33.706 0 0 0-1.222-10.066 15.935 15.935 0 0 0-.474-1.526l.622.264s26.465 19.246 50.71 27.114a28.994 28.994 0 0 1 7.949 4.028 34.366 34.366 0 0 1 5.4 4.847 50.251 50.251 0 0 1 8.057 12.394 85.066 85.066 0 0 1 6.948 24.026z" class="prefix__cls-7" data-name="Path 102" transform="translate(-76.26 -334.767)"/>
        <path id="prefix__Path_103" d="M252.9 296.14c1.164 4.476 2.685 9.448 6.682 11.78a5.867 5.867 0 0 1 1.464 1c.985 1.07.685 2.739.537 4.189a17.319 17.319 0 0 0 5.138 13.588 25.537 25.537 0 0 0 13.159 6.749 4.786 4.786 0 0 0 3.581-.273 4.176 4.176 0 0 0 1.468-2.108c1.365-3.63.788-7.707-.354-11.413s-2.824-7.242-3.688-11.024c-2.054-8.974.667-18.248 1.893-27.374a23.5 23.5 0 0 0-.139-9.122c-1.132-4.288-4.256-7.725-7.273-10.979a22.435 22.435 0 0 0-5.368-4.677c-6.15-3.361-14.067-.376-20.633-2.824-2.627-.98-4.861-2.771-7.363-4.028-5.313-2.685-11.61-2.833-17.433-1.611s-11.279 3.733-16.681 6.221l-4.131 1.871c-5.818 2.685-12.053 5.72-15.186 11.337-3.334 5.98-2.408 13.633-5.742 19.613-1.012 1.79-2.421 3.509-2.685 5.568a11.1 11.1 0 0 0 .7 4.409 35.3 35.3 0 0 1 1.862 10.742 14.432 14.432 0 0 1-3.831 9.963c-1.092 1.083-2.551 2.471-1.88 3.854a2.9 2.9 0 0 0 .9.967 15.849 15.849 0 0 0 15.1 2.238 9.805 9.805 0 0 0 4.923-3.715 14.541 14.541 0 0 0 1.584-4.154c1.414-5.268 2.838-10.625 2.726-16.081-.063-3.133-.636-6.293-.179-9.4s2.269-6.306 5.29-7.161c2.238-.64 4.632.134 6.969.112 3.366-.027 7.492-3.76 10.612-2.663 2.685.949 4.811 6.087 7.031 8.056a25.492 25.492 0 0 0 20.947 6.35z" class="prefix__cls-5" data-name="Path 103" transform="translate(-117.597 -206.05)"/>
        <path id="prefix__Path_104" d="M252.949 294.8c1.164 4.476 2.685 9.448 6.682 11.78a5.87 5.87 0 0 1 1.446.976c.985 1.07.685 2.739.537 4.189a17.319 17.319 0 0 0 5.138 13.588 25.537 25.537 0 0 0 13.159 6.749 4.786 4.786 0 0 0 3.581-.273 4.175 4.175 0 0 0 1.468-2.108c1.365-3.63.788-7.707-.353-11.413s-2.824-7.242-3.688-11.024c-2.054-8.974.667-18.248 1.893-27.374a23.5 23.5 0 0 0-.139-9.122c-1.132-4.288-4.256-7.725-7.273-10.979a22.434 22.434 0 0 0-5.371-4.677c-6.15-3.361-14.067-.376-20.633-2.824-2.627-.98-4.861-2.77-7.363-4.028-5.313-2.685-11.61-2.833-17.433-1.611s-11.279 3.733-16.681 6.221l-4.077 1.88c-5.819 2.685-12.053 5.72-15.186 11.337-3.334 5.98-2.408 13.633-5.742 19.613-1.012 1.79-2.421 3.509-2.685 5.568a11.1 11.1 0 0 0 .7 4.409 35.3 35.3 0 0 1 1.862 10.742 14.432 14.432 0 0 1-3.831 9.963c-1.092 1.083-2.551 2.471-1.88 3.854a2.9 2.9 0 0 0 .9.967 15.849 15.849 0 0 0 15.1 2.238 9.8 9.8 0 0 0 4.92-3.713 14.542 14.542 0 0 0 1.584-4.153c1.414-5.268 2.838-10.626 2.726-16.081-.063-3.133-.636-6.293-.179-9.4s2.269-6.306 5.29-7.161c2.238-.64 4.632.134 6.969.112 3.366-.027 7.492-3.76 10.612-2.663 2.685.949 4.811 6.087 7.031 8.056a25.314 25.314 0 0 0 20.916 6.362z" class="prefix__cls-8" data-name="Path 104" transform="translate(-117.642 -205.299)"/>
        <path id="prefix__Rectangle_38" d="M0 0H102.54V87.931H0z" class="prefix__cls-10" data-name="Rectangle 38" transform="translate(182.625 108.61)"/>
        <path id="prefix__Rectangle_39" d="M0 0H102.54V87.931H0z" class="prefix__cls-7" data-name="Rectangle 39" transform="translate(182.625 108.61)"/>
        <path id="prefix__Path_105" d="M540.5 524.383h-87.73C453.9 518 457.215 511 463.668 503.45a77.433 77.433 0 0 0 12.362-19.783q1.249-2.878 2.238-5.769a84.482 84.482 0 0 0 3.934-17.643 4.951 4.951 0 0 1 .058-.51 96.385 96.385 0 0 0 .546-12.5v-.9a113.872 113.872 0 0 0-5.035-30.176l-.112-.349c-.953-3-1.651-4.691-1.651-4.691s1.741-.944 4.614-2.336l.242-.116c10.567-5.076 35.582-15.665 46.611-8.119l.179.121c3.858 2.748 5.935 7.792 4.959 16.193v.1a4.432 4.432 0 0 1-.049.448 162.562 162.562 0 0 0-.837 17.429v.9q0 2.045.045 4.145v.564c.09 4.521.291 9.189.573 13.924.389 6.566.944 13.253 1.585 19.814.273 2.806.568 5.595.9 8.338l.107.971c.376 3.343.765 6.62 1.164 9.8l.027.206c1.516 12.62 3.199 23.639 4.372 30.872z" class="prefix__cls-11" data-name="Path 105" transform="translate(-270.033 -289.278)"/>
        <path id="prefix__Path_106" d="M561.232 416.922v.1a160.934 160.934 0 0 0-.9 17.9v.9a42.7 42.7 0 0 1-48.9 11.494v-.9a113.639 113.639 0 0 0-5.147-30.525c-.953-3-1.651-4.691-1.651-4.691s1.741-.944 4.615-2.336c10.464-5.058 36-15.979 47.018-8.137 3.859 2.749 5.933 7.794 4.965 16.195z" class="prefix__cls-5" data-name="Path 106" transform="translate(-298.687 -289.303)"/>
        <circle id="prefix__Ellipse_23" cx="42.663" cy="42.663" r="42.663" class="prefix__cls-11" data-name="Ellipse 23" transform="translate(186.653 75.109)"/>
        <path id="prefix__Path_107" d="M449.555 616.99H358.54s4.091-19.863 4.673-23.954c.318-2.238 4.028-10.294 10.039-17.29a44.158 44.158 0 0 1 27.159-9.636c17.406-.26 22.473 5.733 23.847 10.164a9.923 9.923 0 0 1 .358 4.605l3.294 4.771z" class="prefix__cls-5" data-name="Path 107" transform="translate(-217.978 -382.177)"/>
        <path id="prefix__Path_108" d="M448.9 617.64h-91.01s4.091-19.864 4.673-23.954c.318-2.238 4.028-10.294 10.039-17.29a44.159 44.159 0 0 1 27.159-9.636c17.406-.26 22.473 5.733 23.847 10.164a9.923 9.923 0 0 1 .358 4.606l3.294 4.771z" class="prefix__cls-6" data-name="Path 108" transform="translate(-217.619 -382.536)"/>
        <path id="prefix__Path_109" d="M665.521 615.135H570.16c4.547-9.677 16.466-35.475 17.129-41.441.255-2.309 2.717-4.476 5.975-6.315a33.961 33.961 0 0 1 3.173-1.6l.2-.089q.9-.394 1.813-.73a36.326 36.326 0 0 1 25.512.2c7.828 2.976 17.9 6.987 25.745 10.742l.063.031c2.014.967 3.889 1.911 5.541 2.82 3.3 1.813 5.716 3.469 6.642 4.794.425.609.9 3.352 1.41 7.609.681 5.754 1.428 14.294 2.158 23.979z" class="prefix__cls-5" data-name="Path 109" transform="translate(-334.882 -380.322)"/>
        <path id="prefix__Path_110" d="M666.171 615.785H570.81c4.547-9.677 16.466-35.475 17.129-41.441.255-2.309 2.717-4.476 5.975-6.315a33.971 33.971 0 0 1 3.173-1.6l.2-.089q.9-.394 1.813-.73a36.326 36.326 0 0 1 25.512.2c7.828 2.976 17.9 6.987 25.745 10.742l.063.031c2.014.967 3.889 1.911 5.541 2.82 3.3 1.813 5.716 3.469 6.642 4.794.425.609.9 3.352 1.41 7.609.687 5.754 1.428 14.294 2.158 23.979z" class="prefix__cls-6" data-name="Path 110" transform="translate(-335.241 -380.681)"/>
        <path id="prefix__Path_111" d="M533.367 404.494q0 2.063-.112 4.131-.063 1.007-.152 2.014c-.04.483-.089.962-.139 1.441l-.063.555c-.73 6.508-2.077 12.98-2.238 19.519v.926a81.458 81.458 0 0 0 2.309 18.207h-54.917c-.089-1.115-.134-2.238-.121-3.343a29.353 29.353 0 0 1 .166-3c.846-8.24 5.058-15.952 5.693-24.138l.027-.376c.04-.613.063-1.231.054-1.848v-.166a31.648 31.648 0 0 0-1.24-7.994l-.107-.389a80.544 80.544 0 0 0-2.685-7.609l-.2-.5c-1.491-3.724-3.057-7.416-4.118-11.118a29.581 29.581 0 0 1-1.294-8.5c0-.515.031-1.029.072-1.544.036-.421.085-.841.148-1.267a19.843 19.843 0 0 1 .394-1.974c.9-3.527 2.806-6.835 4.637-10.111 2.036-3.648 3.979-7.255 4.328-11.091a12.808 12.808 0 0 0 .049-1.459 12.845 12.845 0 0 0-.179-1.871c-.47-2.721-1.871-5.17-3.021-7.68-.116-.255-.233-.51-.345-.77 0-.04-.036-.081-.049-.121-2.238-5.17-3.536-10.684-4.9-16.171-.058-.237-.116-.474-.179-.707-.336-1.343-.68-2.685-1.047-4.028-2.005-7.322-4.861-14.721-10.294-20.007s-14.1-7.962-20.9-4.6c-5.886 2.932-9.072 9.493-10.509 15.9s-1.553 13.1-3.42 19.4q-.2.689-.448 1.374c-.081.233-.161.448-.242.7a70.3 70.3 0 0 1-2.856 6.79l-.112.237c-3.4 7.237-7.354 14.349-7.479 21.622v.68a18.758 18.758 0 0 0 .779 5.1 25.426 25.426 0 0 0 4.4 8.056q.559.73 1.146 1.446c1.88 2.309 3.921 4.547 5.707 6.928l.058.076a28.312 28.312 0 0 1 3.415 5.7 20.8 20.8 0 0 1 .09 16.068 30.19 30.19 0 0 1-1.741 3.428c-1.15 1.987-2.417 3.921-3.415 5.989a22.375 22.375 0 0 0-.9 2.117c-2.238 5.765-2.721 12.143-4.547 18.091a41.074 41.074 0 0 1-6.5 12.662h-58.18c.676-3.308 4.028-19.693 4.556-23.372.318-2.238 4.028-10.294 10.039-17.29q-.759.6-1.464 1.2a49.793 49.793 0 0 0-9.744 11.216c.13-.4.264-.81.4-1.213.819-2.444 1.705-4.865 2.6-7.255 2.6-6.884 5.505-13.906 10.7-19.125 2.932-2.945 6.5-5.214 9.292-8.289 4.923-5.411 6.96-12.908 6.9-20.257 0-.761-.031-1.517-.081-2.274-.533-8.056-3.285-15.768-6.266-23.274-1.6-4.028-3.3-8.262-3.227-12.532a13.982 13.982 0 0 1 .13-1.79c1.231-8.849 10.182-14.148 15.558-21.287 7.994-10.621 8.576-26.407 19.062-34.562 8.056-6.266 19.246-5.881 29.419-5.2 9.462.636 18 1.866 27.392 3.182s18.919 3.787 26.452 9.574c4.865 3.733 8.661 8.678 12.031 13.8 4.512 6.866 8.455 14.448 9 22.643.04.586.063 1.168.063 1.746.094 9.578-4.064 18.861-4.615 28.479-.022.448-.04.9-.045 1.343a.306.306 0 0 0 0 .072c-.1 8.338 3.1 17.093 7.457 24.169a64.822 64.822 0 0 1 9.568 33.521z" class="prefix__cls-5" data-name="Path 111" transform="translate(-217.785 -216.183)"/>
        <path id="prefix__Path_112" d="M533.2 403.792c0 1.182-.045 2.368-.112 3.545q-.063 1.007-.152 2.014t-.2 2c-.729 6.508-2.077 12.98-2.238 19.519v1.508a84.077 84.077 0 0 0 2.439 18.207h-55c-.1-1.114-.166-2.238-.175-3.343a32 32 0 0 1 .166-3.581c.846-8.24 5.058-15.952 5.693-24.138.045-.6.076-1.2.081-1.79v-.421a32.021 32.021 0 0 0-1.338-8.549 80.476 80.476 0 0 0-2.685-7.609c-1.549-3.889-3.209-7.752-4.319-11.637a30.267 30.267 0 0 1-1.293-7.936 20.822 20.822 0 0 1 .072-2.13c.036-.421.085-.841.148-1.267a19.843 19.843 0 0 1 .394-1.974c.9-3.527 2.806-6.835 4.637-10.111 2.041-3.652 3.992-7.269 4.337-11.109.027-.291.04-.586.049-.9a12.535 12.535 0 0 0-.179-2.457c-.47-2.721-1.871-5.169-3.021-7.68-.116-.255-.233-.51-.345-.77-2.269-5.2-3.581-10.742-4.95-16.292-.394-1.584-.8-3.169-1.222-4.74-2.005-7.322-4.861-14.721-10.294-20.007s-14.085-7.909-20.884-4.525c-5.886 2.932-9.072 9.493-10.509 15.9s-1.553 13.1-3.42 19.4c-.206.694-.448 1.388-.676 2.077-.832 2.359-1.871 4.7-2.963 7.027-3.5 7.425-7.564 14.73-7.479 22.209v.094a18.762 18.762 0 0 0 .779 5.1 25.424 25.424 0 0 0 4.4 8.056q.56.729 1.146 1.446c1.9 2.336 3.965 4.6 5.765 7a28.315 28.315 0 0 1 3.415 5.7 20.8 20.8 0 0 1 .089 16.068 30.186 30.186 0 0 1-1.741 3.428c-1.15 1.987-2.417 3.921-3.415 5.989a22.362 22.362 0 0 0-.9 2.117c-2.238 5.765-2.721 12.143-4.547 18.091a41.177 41.177 0 0 1-6.951 13.244H357.89s4.091-19.863 4.673-23.954c.291-2.045 3.428-8.952 8.576-15.5.448-.6.958-1.2 1.464-1.79a50.15 50.15 0 0 0-10.8 11.789l-.4.627c.931-2.86 1.956-5.684 3.008-8.468 2.6-6.884 5.505-13.906 10.7-19.125 2.932-2.945 6.5-5.214 9.292-8.289 4.78-5.268 6.848-12.532 6.9-19.693 0-.958 0-1.911-.081-2.86-.533-8.056-3.285-15.768-6.266-23.274-1.526-3.858-3.133-7.877-3.227-11.968a14.542 14.542 0 0 1 .13-2.359c1.235-8.8 10.187-14.076 15.562-21.238 7.994-10.621 8.576-26.407 19.062-34.562 8.056-6.266 19.246-5.881 29.419-5.2 9.462.636 18 1.866 27.392 3.182s18.932 3.782 26.456 9.551c4.865 3.755 8.661 8.678 12.031 13.808 4.512 6.866 8.455 14.448 9 22.643q.081 1.168.063 2.332c-.076 9.368-4.078 18.471-4.615 27.9-.036.636-.054 1.267-.045 1.907a.3.3 0 0 0 0 .072c.054 8.164 3.2 16.677 7.457 23.574a64.827 64.827 0 0 1 9.559 34.122z" class="prefix__cls-10" data-name="Path 112" transform="translate(-217.619 -215.482)"/>
    </g>
</svg>
