<svg xmlns="http://www.w3.org/2000/svg" width="986.76" height="687.27" viewBox="0 0 986.76 687.27">
    <defs>
        <style>
            .prefix__cls-1{fill:#3f3d56}.prefix__cls-2{fill:#f1f1f1}.prefix__cls-4{fill:#57b793}.prefix__cls-5{opacity:.1}.prefix__cls-8{fill:#ffc0c6}.prefix__cls-9{fill:#575a88}.prefix__cls-11{fill:#3dace4}
        </style>
    </defs>
    <g id="prefix__Group_25" data-name="Group 25" transform="translate(-793 -313.383)">
        <ellipse id="prefix__Ellipse_12" cx="320.141" cy="62.258" class="prefix__cls-1" data-name="Ellipse 12" rx="320.141" ry="62.258" transform="translate(1130.244 876.137)"/>
        <path id="prefix__Path_37" d="M751.778 761.292s59.359-15.922 70.558-14.746-16.966-54.6-35.724-47.8-43.768 24.7-58.065-.576-22.317-38.877-39.734-37.516-41.537-10.872-58.943 0-29.633 24.281-53.673 23.7-46.831-54.983-65.554-33.216-41.179 41.678-58.781 34.438-37.689 3.643-53.765 15.887-44.219 6.8-54.933-2.721-18.769-16.325-41.537-14.988S206.5 701.444 179.7 721.8s34.834 46.255 64.317 46.255 34.834 8.163 60.3 20.407 67.033-6.8 96.47 13.6 67.033-10.884 117.886 0 40.2 25.837 69.68 14.988 18.758-14.988 61.636-17.686 89.767 6.8 93.789-10.884 30.789-21.767 46.877-27.209-38.877.021-38.877.021z" class="prefix__cls-1" data-name="Path 37" transform="translate(954.871 162.115)"/>
        <path id="prefix__Path_38" d="M936.949 636.225l-2.312-1.476-.682-.438a22.528 22.528 0 0 0 2.312-43.927l.115 9.293-5.12-10.111a22.585 22.585 0 0 0-23.635 21.479v1.28a26.858 26.858 0 0 1-4.461-6.572c-2.173-4.831-2.208-10.284-2.046-16.925.347-13.143.913-26.391 1.653-39.6a22.551 22.551 0 0 0 20.075-21.341 20.034 20.034 0 0 0 0-2.041v-.507a12.25 12.25 0 0 0-.208-1.948 2.944 2.944 0 0 0 0-.311c-.081-.542-.2-1.072-.324-1.6a2.748 2.748 0 0 0-.15-.588c-.162-.576-.335-1.153-.543-1.706-.069-.184-.139-.357-.219-.542-.162-.415-.335-.819-.52-1.222-.093-.208-.185-.427-.289-.634l-.081-.161a22.638 22.638 0 0 0-26.582-11.437l.15 12.094-5.062-9.984a22.51 22.51 0 0 0-11.28 18.447 22.046 22.046 0 0 0 .5 5.822 2.389 2.389 0 0 0 .127.473c.035.161.15.6.231.888s.22.75.347 1.153.185.553.289.83.335.784.509 1.153c.1.219.2.45.3.68.289.576.6 1.153.936 1.706.116.2.254.38.37.565.243.369.485.749.751 1.153a4.464 4.464 0 0 0 .509.646c.173.208.5.623.763.922s.381.415.578.623.555.576.855.853l.589.553 1.029.853.532.415c.543.392 1.086.761 1.664 1.153l.324.184a16.3 16.3 0 0 0 1.468.8l.647.288c.4.184.821.369 1.248.519l.74.265c.416.15.832.277 1.26.392l.763.2c.462.115.936.208 1.41.288h.093q-.462 8.37-.832 16.729a22.609 22.609 0 0 0-31.367-9.788l3.987 10.93-8.217-7.875a22.449 22.449 0 0 0-7.3 15.565 22.1 22.1 0 0 0 .578 6.214 22.613 22.613 0 0 0 41.607 6.145v1.695c-.15 5.857-.335 13.143 2.589 19.6a39.83 39.83 0 0 0 8.321 11.206c2.057 2.087 4.184 4.1 6.357 6.064a22.709 22.709 0 0 0 8.171 6.768q5.374 4.127 11.118 7.736l2 1.453c2.15 1.337 4.357 2.7 6.518 4.116l-1.156-.092a22.607 22.607 0 0 0-22.248 14.677l14.123 11.529-15.545-3.6a22.638 22.638 0 0 0 32.352 20.304c-.358.426-.7.865-1.052 1.3l-2.057 2.559c-9.246 11.621-11.754 22.643-7.2 31.048l5.536-2.986c-4.427-8.186 2.231-18.654 6.6-24.211.659-.842 1.341-1.683 2.023-2.525 5.871-7.275 12.528-15.53 12.366-25.653-.116-15.262-14.968-24.44-26.895-31.807z" class="prefix__cls-2" data-name="Path 38" transform="translate(30.347 140.437)"/>
        <path id="prefix__Path_39" d="M713.369 643.268l3.758-2.344c.367-.22.722-.452 1.077-.684a35.744 35.744 0 0 1-3.672-69.67l-.184 14.737 8.115-16.032h.1a35.816 35.816 0 0 1 37.478 34.066v2.027a42.729 42.729 0 0 0 7.087-10.439c3.439-7.643 3.5-16.3 3.231-26.862-.538-20.855-1.444-41.868-2.619-62.808a35.775 35.775 0 0 1-31.823-33.834v-4.054c.073-1.038.171-2.063.33-3.077a1.033 1.033 0 0 1 .086-.5c.147-.855.331-1.7.539-2.54.073-.317.147-.623.233-.94.257-.916.526-1.807.857-2.7.1-.293.22-.574.343-.867.257-.659.526-1.294.82-1.929.159-.342.306-.672.465-1a2.43 2.43 0 0 0 .122-.256A35.831 35.831 0 0 1 770 434.027a36.325 36.325 0 0 1 11.8 1.416l-.233 19.182 8.017-15.873a35.511 35.511 0 0 1 17.136 38.535 3.531 3.531 0 0 1-.2.745c-.11.476-.233.94-.355 1.4s-.367 1.221-.563 1.77-.294.879-.465 1.306c-.233.635-.514 1.221-.8 1.868-.159.366-.306.733-.477 1.087-.453.916-.942 1.819-1.481 2.7-.184.318-.392.611-.587.9a18 18 0 0 1-1.224 1.758c-.257.354-.539.684-.808 1.026s-.8.989-1.224 1.465l-.906.989q-.661.7-1.359 1.355l-.943.867c-.526.464-1.077.916-1.64 1.343-.281.22-.551.452-.844.672-.845.623-1.714 1.221-2.619 1.758-.171.11-.355.2-.526.293-.759.44-1.53.867-2.313 1.221l-1.04.464c-.649.293-1.3.574-1.971.818-.392.159-.783.293-1.224.427-.661.22-1.334.427-2.007.61l-1.224.318c-.747.171-1.493.318-2.24.452h-.147q.759 13.26 1.322 26.52a35.868 35.868 0 0 1 49.755-15.507l-6.34 17.314 13.035-12.479a35.532 35.532 0 0 1 11.579 24.688 35.025 35.025 0 0 1-.906 9.853 35.855 35.855 0 0 1-65.911 9.768c0 .9 0 1.807.086 2.7.233 9.292.539 20.842-4.1 31.16-3.146 7-8.213 12.662-13.207 17.753q-4.9 4.982-10.086 9.622a35.857 35.857 0 0 1-12.937 10.745q-8.568 6.532-17.65 12.21l-3.794 2.344c-3.4 2.112-6.9 4.286-10.33 6.532.6 0 1.224-.122 1.811-.147a35.839 35.839 0 0 1 35.287 23.272l-22.387 18.181 24.639-5.69A35.883 35.883 0 0 1 696 725.954c.563.684 1.114 1.367 1.665 2.063 1.1 1.367 2.2 2.723 3.268 4.066 14.578 18.425 18.629 35.9 11.42 49.23l-8.788-4.725c7.026-12.979-3.537-29.585-10.465-38.327-1.04-1.331-2.117-2.662-3.207-4-9.315-11.538-19.865-24.627-19.584-40.671.6-24.071 24.137-38.59 43.06-50.322z" class="prefix__cls-2" data-name="Path 39" transform="translate(368.03 110.33)"/>
        <path id="prefix__Path_40" d="M978.323 766.686s40-10.561 47.536-9.788-11.43-36.133-24.063-31.636-29.495 16.349-39.122-.38-15.024-25.734-26.774-24.835-27.981-7.206-39.711 0-19.96 16.072-36.163 15.691-31.54-36.4-44.173-22-27.738 27.6-39.6 22.8-25.426 2.41-36.233 10.515-29.784 4.508-36.984-1.8-12.644-10.8-27.992-9.9-64.086 11.7-82.139 25.215 23.473 30.61 43.329 30.61 23.473 5.407 40.624 13.512 45.132-4.508 64.988 9 45.132-7.206 79.434 0 27.079 17.109 46.946 9.9 12.632-9.9 41.514-11.7 60.48 4.5 63.2-7.206 20.8-14.412 31.586-18.009-26.203.011-26.203.011z" class="prefix__cls-1" data-name="Path 40" transform="translate(272.13 168.896)"/>
        <path id="prefix__Path_341" d="M7.686 16.639c4.248 0 7.694-3.73 7.7-8.325S11.945 0 7.7 0 0 3.73 0 8.325s3.438 8.317 7.686 8.314z" class="prefix__cls-1" data-name="Path 341" transform="rotate(-107.28 857.471 104.929)"/>
        <path id="prefix__Path_342" d="M7.686 16.639c4.248 0 7.694-3.73 7.7-8.325S11.945 0 7.7 0 0 3.73 0 8.325s3.438 8.317 7.686 8.314z" class="prefix__cls-1" data-name="Path 342" transform="rotate(-107.28 922.278 -3.01)"/>
        <path id="prefix__Path_55" d="M1025.953 777.615s40-10.561 47.536-9.777-11.43-36.144-24.062-31.636-29.495 16.337-39.122-.392-15.025-25.722-26.779-24.823-27.981-7.206-39.711 0-19.96 16.06-36.163 15.68-31.54-36.4-44.184-21.986-27.738 27.59-39.6 22.8S798.444 729.9 787.65 738s-29.8 4.5-36.984-1.8-12.632-10.814-27.981-9.915S658.6 738 640.546 751.5s23.462 30.622 43.329 30.622 23.462 5.4 40.613 13.5 45.143-4.5 65 9 45.132-7.194 79.434 0 27.079 17.109 46.935 9.915 12.644-9.915 41.526-11.714 60.48 4.508 63.185-7.206 20.746-14.4 31.587-18.009-26.202.007-26.202.007z" class="prefix__cls-1" data-name="Path 55" transform="translate(169.441 170.568)"/>
        <path id="prefix__Path_56" d="M990.143 759.725c-3.467-6.353.462-14.146 4.947-19.807s9.963-11.529 9.847-18.781c-.173-10.376-11.211-16.5-20.029-22.01a97.034 97.034 0 0 1-17.984-14.427 26.072 26.072 0 0 1-5.524-7.379c-1.826-4.058-1.78-8.67-1.664-13.109q.566-22.205 2.208-44.376" data-name="Path 56" transform="translate(-134.273 158.114)" style="fill:none;stroke:#3f3d56;stroke-miterlimit:10;stroke-width:4px"/>
        <path id="prefix__Path_57" d="M983.451 621.187a16.136 16.136 0 0 1 8.09-13.259l3.629 7.171-.115-8.682a16.439 16.439 0 0 1 5.351-.646 16.141 16.141 0 1 1-16.966 15.415z" class="prefix__cls-4" data-name="Path 57" transform="translate(-172.55 155.96)"/>
        <path id="prefix__Path_58" d="M961.731 717.253a16.144 16.144 0 1 0-.786-13.028l10.136 8.266-11.153-2.571a16.111 16.111 0 0 0 1.8 7.333z" class="prefix__cls-4" data-name="Path 58" transform="translate(-121.902 169.411)"/>
        <path id="prefix__Path_59" d="M979.927 691.171a16.139 16.139 0 0 0 5.131-31.74l.081 6.664-3.664-7.252a16.165 16.165 0 0 0-16.99 15.4 15.924 15.924 0 0 0 .693 5.522 16.173 16.173 0 0 0 14.747 11.4z" class="prefix__cls-4" data-name="Path 59" transform="translate(-132.089 164.075)"/>
        <path id="prefix__Path_60" d="M1014.457 668.491a16.148 16.148 0 1 0-7.177-30.287l2.866 7.84-5.894-5.649a16.124 16.124 0 0 0-5.236 11.172 15.865 15.865 0 0 0 .4 4.462 16.17 16.17 0 0 0 15.036 12.463z" class="prefix__cls-4" data-name="Path 60" transform="translate(-205.995 160.619)"/>
        <path id="prefix__Path_61" d="M985.327 624.324c3.745.4 7.385 1.568 11.141 1.8s7.882-.657 10.251-3.574c1.283-1.568 1.93-3.551 3-5.269a11.544 11.544 0 0 1 4.091-3.839 16.172 16.172 0 1 1-30.327 10.745q.917.033 1.844.137z" class="prefix__cls-5" data-name="Path 61" transform="translate(-172.242 157.135)"/>
        <path id="prefix__Path_62" d="M1013.856 667.269a16.2 16.2 0 0 0 15.429-23.059 11.97 11.97 0 0 0-3.282 3.217c-1.156 1.741-1.861 3.759-3.224 5.35-2.52 2.963-6.83 3.931-10.749 3.759s-7.7-1.291-11.557-1.649c-.543 0-1.156-.081-1.641-.092a16.17 16.17 0 0 0 15.025 12.475z" class="prefix__cls-5" data-name="Path 62" transform="translate(-205.394 161.841)"/>
        <path id="prefix__Path_63" d="M979.511 689.9a16.146 16.146 0 0 0 15.533-22.782 13.069 13.069 0 0 0-3.467 3.286c-1.26 1.775-2.046 3.828-3.467 5.465-2.739 3.032-7.339 4.1-11.488 4.012s-7.882-1.072-11.869-1.384a16.174 16.174 0 0 0 14.759 11.4z" class="prefix__cls-5" data-name="Path 63" transform="translate(-131.673 165.344)"/>
        <path id="prefix__Path_64" d="M959.564 715.881a16.189 16.189 0 0 0 29.564-13.2 16.169 16.169 0 0 0-3.548 3.171c-1.549 1.868-2.566 4-4.346 5.765-3.317 3.251-8.668 4.612-13.441 4.716a69.494 69.494 0 0 1-8.229-.45z" class="prefix__cls-5" data-name="Path 64" transform="translate(-119.735 170.782)"/>
        <path id="prefix__Path_65" d="M998.97 735.735s-12.806-.392-16.666-3.136-19.648-6.007-20.653-1.614-19.232 21.906-4.785 21.975 33.586-2.237 37.435-4.612 4.669-12.613 4.669-12.613z" data-name="Path 65" transform="translate(-118.632 174.782)" style="fill:#656380"/>
        <path id="prefix__Path_66" d="M956.588 750.527c14.458.115 33.586-2.306 37.435-4.612 2.936-1.787 4.1-8.174 4.5-11.126h.428s-.809 10.307-4.623 12.682-22.976 4.692-37.435 4.612c-4.172 0-5.605-1.51-5.536-3.7.608 1.291 2.156 2.11 5.231 2.144z" data-name="Path 66" transform="translate(-118.643 175.693)" style="opacity:.2"/>
        <path id="prefix__Path_67" d="M423.474 272.2a5.188 5.188 0 0 0-.358-2.467c-.936-1.66-3.386-1.211-5.236-.738-7.443 1.868-15.279.173-22.93.611s-16.284 4.254-17.822 11.748a55.692 55.692 0 0 1-14.135-14.492c-2.127-3.171-3.976-6.8-3.687-10.607.416-5.488 5.028-9.592 9.3-13.074l12.713-10.376a19.088 19.088 0 0 1 5.709-3.62c2.936-1 6.149-.53 9.246-.53 9.246 0 19.151-4.2 27.4 0 3.467 1.764 6.033 4.785 8.529 7.736l11.373 13.432a7.063 7.063 0 0 1 1.824 3.077c.324 1.637-.52 3.251-.809 4.9-.543 3 .763 6.191-.243 9.074-1.653 4.785-7.466 5.465-11.026 8.2-1.329 1.026-3.409 4.485-4.981 4.45-2.821-.034-4.786-5.118-4.867-7.324z" class="prefix__cls-1" data-name="Path 67" transform="translate(1119.117 98.005)"/>
        <path id="prefix__Path_68" d="M433.468 296.294c.127 3.735 2.311 7.056 4.415 10.157 2.808 4.127 5.779 8.416 10.217 10.722a98.384 98.384 0 0 1-72.558 7.632c-3.895-1.153-8.495-3.551-8.264-7.6 4.623-1.257 9.408-2.56 13.337-5.338 4.692-3.32 7.79-8.486 9.789-13.835s3.016-11.068 4.415-16.637a3.133 3.133 0 0 1 .717-1.545 3.2 3.2 0 0 1 2.2-.576l15.391-.274c6.322 0 13.187-.15 19.058 2.525 7.304 3.344 1.075 8.566 1.283 14.769z" class="prefix__cls-8" data-name="Path 68" transform="translate(1107.251 105.989)"/>
        <path id="prefix__Path_69" d="M433.468 296.294c.127 3.735 2.311 7.056 4.415 10.157 2.808 4.127 5.779 8.416 10.217 10.722a98.384 98.384 0 0 1-72.558 7.632c-3.895-1.153-8.495-3.551-8.264-7.6 4.623-1.257 9.408-2.56 13.337-5.338 4.692-3.32 7.79-8.486 9.789-13.835s3.016-11.068 4.415-16.637a3.133 3.133 0 0 1 .717-1.545 3.2 3.2 0 0 1 2.2-.576l15.391-.274c6.322 0 13.187-.15 19.058 2.525 7.304 3.344 1.075 8.566 1.283 14.769z" class="prefix__cls-5" data-name="Path 69" transform="translate(1107.251 105.989)"/>
        <path id="prefix__Path_70" d="M382.2 752.368c3.791 5.765 8.749 10.641 12.91 16.141s7.639 11.91 7.686 18.793a2.97 2.97 0 0 1-.8 2.421 3.126 3.126 0 0 1-1.583.5l-16.065 2.052a26.983 26.983 0 0 1-7.4.254 26.276 26.276 0 0 1-7.582-2.756 10.456 10.456 0 0 1-4.554-3.459c-.774-1.268-.982-2.825-1.722-4.116-2.231-3.908-7.848-3.735-12.309-3.055-1.283-11.887 2.011-23.739 5.282-35.245a3.612 3.612 0 0 1 2.982-3.09c3.849-1.257 13.152-6.18 16.388-3.874 2.367 1.703 4.845 12.379 6.767 15.434z" class="prefix__cls-9" data-name="Path 70" transform="translate(1171.917 175.927)"/>
        <path id="prefix__Path_71" d="M488.2 776.015c-3.086-1.441-6.38-3.3-9.708-2.536-4.692 1.049-6.784 6.583-10.772 9.223-2.45 1.649-5.478 2.133-8.4 2.513a196.3 196.3 0 0 1-27.16 1.6c-2.9 0-6.553-.692-7.258-3.459s1.965-4.969 4.334-6.41a127.255 127.255 0 0 1 16.042-8.313 32.189 32.189 0 0 0 7.651-4.058c3.964-3.194 5.894-8.2 7.663-12.959 1.422-3.828 2.728-12.094 5.64-14.988 3.19-3.124 7.478-1.049 11.477-.173 6.218 1.36 13.5 2.306 17.5 7.875 5.839 8.153 10.335 39.698-7.009 31.685z" class="prefix__cls-9" data-name="Path 71" transform="translate(988.459 175.72)"/>
        <path id="prefix__Path_72" d="M479.507 451.965a117.283 117.283 0 0 1 8.622 40.975c.277 10.5-.855 20.972-2 31.417q-2.739 25.365-5.5 50.729a142.792 142.792 0 0 1-3.317 20.88c-2 7.667-5.247 14.988-7.57 22.528-7.189 23.5-5.143 48.838-.393 72.946a36.355 36.355 0 0 1 .994 8.07c-.139 4.07-1.71 7.944-2.727 11.887-6.218 24.039 8.09 50.729-1.248 73.788a3.655 3.655 0 0 1-1.468 2.015 3.73 3.73 0 0 1-2.913-.127 39.445 39.445 0 0 1-7.616-3.6 46.468 46.468 0 0 1-18.885 13.639c-5.478-1.349-6.507-7.99-8.3-13.328a90.914 90.914 0 0 1-3.329-11.61 92.2 92.2 0 0 1-1.214-14.619l-4.739-166.425.347 50.786a59.809 59.809 0 0 1-.774 12.29c-.693 3.378-1.965 6.618-2.693 10-1.029 4.831-.9 9.835-.855 14.781A433.383 433.383 0 0 1 405.9 766.4c-1.849 9.431-4.068 18.954-8.8 27.313a3.013 3.013 0 0 1-1.722 1.683c-1.005.219-1.93-.577-2.693-1.28a29.517 29.517 0 0 0-33.829-3.666c1.017-4.888-3.652-10.572-.312-14.285.959-1.072 2.392-1.591 3.467-2.525 2.127-1.81 2.635-4.854 2.936-7.632a176.36 176.36 0 0 0 0-37.205c-1.63-15.461-5.293-31.048-2.589-46.348 1.965-11.1 7.258-21.906 6.206-33.078-.693-7.494-4.184-14.4-6.588-21.537-10.494-31.2 0-65.971-7.593-98-1.745-7.356-4.38-15.311-1.214-22.171l-4.819-1.464 10.009-22.793c2.127-4.854 4.346-9.846 8.09-13.582 6.287-6.237 15.683-7.909 24.456-9.223l71.356-11.1c6.324-1.024 14.854-3.399 17.246 2.458z" data-name="Path 72" transform="translate(1089.042 131.858)" style="fill:#3c354c"/>
        <ellipse id="prefix__Ellipse_19" cx="30.546" cy="30.472" class="prefix__cls-8" data-name="Ellipse 19" rx="30.546" ry="30.472" transform="translate(1493.079 341.178)"/>
        <path id="prefix__Path_73" d="M429.114 299.408a7.111 7.111 0 0 1 4.923-.865 8.42 8.42 0 0 1 2.312 1.257l14.451 10.1a22.322 22.322 0 0 1 5.467 4.773c2.473 3.355 2.866 7.817 2.543 11.967-.717 9.362-4.507 18.193-6.565 27.347s-2.057 19.6 3.86 26.932a14.274 14.274 0 0 1 2.52 3.563 10.355 10.355 0 0 1 .474 3.459 94.1 94.1 0 0 1-.277 13.143c-.647 5.638-2.312 11.114-3.213 16.706-1.583 9.523-1.156 19.289-2.381 28.823a4.616 4.616 0 0 1-4.623 5 136.436 136.436 0 0 1-21.578 1.418c-8.356 0-16.7-.461-25.045-.9L364 450.142a3.741 3.741 0 0 1-4.218-3.862c-3.329-15.933-6.68-32.155-5.108-48.342 1.017-10.457 4.068-20.591 6.934-30.691 2.311-8.186 4.531-16.775 2.8-25.111-1.156-5.5-3.964-10.584-4.692-16.141a19.006 19.006 0 0 1 5.224-16.026c4.253-4.07 10.459-5.615 14.7-9.7a33.4 33.4 0 0 1 3.791-3.666 4.748 4.748 0 0 1 4.981-.576 6.4 6.4 0 0 1 1.9 2.11c3.7 5.6 9.246 14.838 17.047 13.385 8.429-1.507 14.323-8.54 21.755-12.114z" class="prefix__cls-11" data-name="Path 73" transform="translate(1111.166 108.524)"/>
        <path id="prefix__Path_74" d="M474.4 478.911c2.7 2.018 4.715 5.6 3.467 8.728a17.687 17.687 0 0 1-10.818-1.5c-2.161-1.049-4.854-2.525-6.726-1a5.682 5.682 0 0 0-1.375 2.075 70.087 70.087 0 0 1-7.327 12.14c-2.057-.969-4.219-2.029-5.455-3.932a11.361 11.361 0 0 1-1.422-4.208 111.581 111.581 0 0 1-1.607-11.218c-.243-2.732-.289-5.765 1.583-7.794 8.038-8.648 23.016 1.74 29.68 6.709z" class="prefix__cls-8" data-name="Path 74" transform="translate(989.549 135.027)"/>
        <path id="prefix__Path_75" d="M421.835 262.28a5.153 5.153 0 0 0-.358-2.456c-.936-1.66-3.386-1.153-5.236-.749-7.443 1.879-15.279.184-22.93.623s-16.284 4.254-17.822 11.748a55.876 55.876 0 0 1-14.146-14.492c-2.126-3.171-3.976-6.8-3.687-10.607.416-5.488 5.027-9.592 9.3-13.074l12.718-10.373a19.052 19.052 0 0 1 5.709-3.609c2.936-1 6.149-.53 9.246-.53 9.246 0 19.151-4.2 27.4 0 3.467 1.776 6.033 4.8 8.541 7.748l11.361 13.432A7.156 7.156 0 0 1 443.76 243c.324 1.637-.52 3.263-.821 4.9-.532 3 .763 6.2-.231 9.085-1.653 4.785-7.478 5.453-11.037 8.2-1.329 1.026-3.4 4.485-4.981 4.439-2.809-.045-4.774-5.13-4.855-7.344z" class="prefix__cls-1" data-name="Path 75" transform="translate(1122.663 96.491)"/>
        <path id="prefix__Path_76" d="M489.746 309.954a23.74 23.74 0 0 0-18.769 3.459c-8.737 5.972-12.332 16.879-15.371 27l-6.807 22.7c-2.982 9.95-5.987 19.992-6.68 30.357-.636 9.419.659 18.85 1.953 28.2 1.791 12.947-2.427 27.14-2.485 40.2 0 14.988.092 30.887 7.744 43.811a7.317 7.317 0 0 1 4.623-4.923 21.6 21.6 0 0 1 6.877-1.153l20.341-1.3a62.514 62.514 0 0 1-4.461-9.143c-7.8-19.992-4.808-42.336-1.7-63.549a43.719 43.719 0 0 1 1.156-6 57.029 57.029 0 0 0 1.375-23.232 54.052 54.052 0 0 1-.358-10.584 11.8 11.8 0 0 1 .936-4.335 13.628 13.628 0 0 1 2.242-3.09l4.114-4.612c.335-13.95 2.531-28 4.7-41.794a93.63 93.63 0 0 0 .57-22.012z" class="prefix__cls-11" data-name="Path 76" transform="translate(979.317 110.626)"/>
        <path id="prefix__Path_77" d="M405.153 373.427a97.884 97.884 0 0 0 36.8-62.177c.67-4.37 2.416-10.077 6.842-9.927a8.74 8.74 0 0 1 3.768 1.314l16.042 8.578a6.042 6.042 0 0 1 2.8 2.306c1.052 2.052-.439 4.416-1.722 6.33-8.633 13.028-9.246 29.573-9.593 45.183-.1 4.612-.139 9.466 2.092 13.5 1.815 3.263 4.97 5.661 6.634 9.016 1.56 3.148 1.63 6.791 1.676 10.307.324 25.088.647 50.21-.67 75.275-.2 3.782-.5 7.748-2.52 10.953-1.884 2.963-4.993 4.877-8 6.687l-24.328 14.665c-4.623 2.8-9.431 5.649-14.782 6.549s-11.465-.623-14.539-5.084c-1.491-2.167-2.15-4.808-3.583-7.01s-4.172-3.989-6.611-3.009c-1.734.692-2.681 2.5-3.467 4.174-1.549 3.194-3.167 6.468-5.7 8.97s-6.195 4.185-9.674 3.459c-3-.657-5.351-2.928-7.512-5.1-6.68-6.675-13.43-13.443-18.342-21.525a5.179 5.179 0 0 1-1.04-3.263 6.569 6.569 0 0 1 1.791-3c3.074-3.759 4.288-8.682 5.2-13.455 9.142-47.962-3.768-97.815 3.34-146.122.809-5.534 2.589-10.618 6.75-14.366s9.338-6.134 14.435-8.462c1.676-.761 3.594-1.545 5.3-.853 2.832 1.153 2.843 5.038 2.635 8.07a105.478 105.478 0 0 0 .924 18.6l2.485 22.816a44 44 0 0 0 1.942 10.261 41.311 41.311 0 0 0 10.621 16.337z" class="prefix__cls-9" data-name="Path 77" transform="translate(1103.875 108.754)"/>
        <path id="prefix__Path_80" d="M391.848 364.466c-3.722-7.944.092-17.109 2.635-25.5a85.979 85.979 0 0 0 3.594-20.522 14.954 14.954 0 0 0-.717-6.491 5.777 5.777 0 0 0-4.947-3.77 23.624 23.624 0 0 0-3.71 16.856 57.016 57.016 0 0 0-6.542-1.28 12.24 12.24 0 0 0-13.3 8.428c-3.664 11.714-4.912 24.212.2 35.164a66.843 66.843 0 0 0 5.652 9.281l11.141 16.233c.763 1.153 1.7 2.306 3.04 2.5s2.739-1.015 3.721-2.133c3.386-3.816 9.4-9.373 8.737-14.631s-7.286-9.466-9.504-14.135z" class="prefix__cls-8" data-name="Path 80" transform="translate(1155.817 110.452)"/>
        <path id="prefix__Path_81" d="M356.384 314.567c11.315-1.28 24.271 1.776 30.188 11.529 2.97 4.923 3.71 10.826 4.23 16.545.728 8.013 1.156 16.049 1.56 24.073l2.184 42.243c.266 5.05.52 10.111.613 15.161a34.082 34.082 0 0 1-1.26 11.714c-1.4 4.093-4.172 7.552-6.934 10.918s-6.218 6.837-10.275 5.857a11.169 11.169 0 0 1-4.4-2.709l-9.246-7.978c-6.287-5.384-12.644-10.849-17.429-17.605-2.312-3.251-4.207-6.768-6.542-10-6.865-9.5-17.429-16.706-21.046-27.843 3.467-.184 8.506-1.326 10.1-4.393.844-1.626.959-3.563 1.9-5.119 1.422-2.375 4.623-3.666 5.1-6.387 9.084 7.3 16.689 15.772 23.947 24.869l-2.947-11.426a7.254 7.254 0 0 0-1.306-2.963 13.1 13.1 0 0 0-3.467-2.179c-3.594-2.167-4.958-6.652-5.686-10.78a75.285 75.285 0 0 1 10.725-53.53z" class="prefix__cls-11" data-name="Path 81" transform="translate(1217.031 111.386)"/>
    </g>
</svg>
