<svg xmlns="http://www.w3.org/2000/svg" width="756.494" height="625.611" viewBox="0 0 756.494 625.611">
    <defs>
        <style>
            .prefix__cls-1{fill:#2f2e41}.prefix__cls-2{fill:#ffb8b8}.prefix__cls-3{fill:#d0cde1}.prefix__cls-4{fill:#3dace4}.prefix__cls-5{fill:#3f3d56}
        </style>
    </defs>
    <g id="prefix__Group_27" data-name="Group 27" transform="translate(-144.436 -2669)">
        <circle id="prefix__Ellipse_37" cx="34.242" cy="34.242" r="34.242" class="prefix__cls-1" data-name="Ellipse 37" transform="translate(676.734 2836.115)"/>
        <path id="prefix__Path_201" d="M691.888 295.279a34.247 34.247 0 0 1 30.144 50.493 34.234 34.234 0 1 0-56.878-37.617 34.158 34.158 0 0 1 26.734-12.876z" class="prefix__cls-1" data-name="Path 201" transform="translate(28.628 2541.779)"/>
        <circle id="prefix__Ellipse_38" cx="100.587" cy="100.587" r="100.587" class="prefix__cls-1" data-name="Ellipse 38" transform="translate(546.403 2669.111)"/>
        <path id="prefix__Path_202" d="M529.591 155.263a100.569 100.569 0 0 1 139.4-10.547c-.823-.782-1.637-1.57-2.491-2.33a100.587 100.587 0 1 0-133.66 150.353c.855.76 1.733 1.476 2.606 2.2a100.569 100.569 0 0 1-5.855-139.676z" class="prefix__cls-1" data-name="Path 202" transform="translate(38.454 2552.025)"/>
        <circle id="prefix__Ellipse_39" cx="64.785" cy="64.785" r="64.785" class="prefix__cls-2" data-name="Ellipse 39" transform="translate(581.353 2739.863)"/>
        <path id="prefix__Path_203" d="M565.178 282.9s8.524 78.424-5.115 86.948 78.424 20.452 78.424 20.452-13.638-85.239 20.459-107.4z" class="prefix__cls-2" data-name="Path 203" transform="translate(34.928 2542.208)"/>
        <path id="prefix__Path_204" d="M638.843 359.289s25.386-11.855-11.175-7.632-68.1-11.974-68.1-11.974-11.078-11.081-12.782.853 5.115 34.1-32.392 37.507-71.6-6.82-85.243 18.753-6.819 136.389-6.819 136.389 25.573 92.063 46.031 105.7 199.469-5.115 199.469-5.115l51.146-92.063V434.3s-6.82-37.507-54.556-27.278c0 0-30.687-6.82-28.983-22.163s3.404-25.57 3.404-25.57z" class="prefix__cls-3" data-name="Path 204" transform="translate(43.097 2539.126)"/>
        <path id="prefix__Path_205" d="M478.125 719.5c1.054-4.591 1.759-7.188 1.759-7.188l-.546-3.735-5.617-38.141-2.361-16.086c20.454-8.524 25.572-47.738 25.572-47.738l.771-.461 3.49-2.089v-.009l12.532-7.517.254-.151 5.062 3.368 10.283 6.859c35.977 26.456 72.614 25.986 95.222 21.818a104.835 104.835 0 0 0 22.411-6.473l24.8-8.27.771-.254.762.113 14.545 2.2.264.047 1.2.179-3.368 23.286-4.878 33.842c12.9 6.831 24.368 19.663 34.4 35.479q3.331 5.25 6.454 10.923c2.71 4.892 5.3 9.982 7.762 15.194.3.621.593 1.251.884 1.882.95 2.042 1.891 4.1 2.8 6.172H473.609c.339-2.079.677-4.064 1.007-5.974a1.476 1.476 0 0 0 .038-.2c.122-.64.235-1.261.339-1.882 1.146-6.206 2.257-11.394 3.132-15.194z" class="prefix__cls-1" data-name="Path 205" transform="translate(40.094 2523.66)"/>
        <path id="prefix__Path_206" d="M467.734 378.652s18.753 34.1 11.934 76.719 20.458 148.323 20.458 148.323l20.458-5.115s-13.639-88.653-10.229-109.111 3.41-100.587-13.639-110.816-28.982 0-28.982 0z" class="prefix__cls-1" data-name="Path 206" transform="translate(40.309 2536.812)"/>
        <path id="prefix__Path_207" d="M678.472 415.98l7.166 188.755 13.639 8.524s19.606-207.141 9.377-207.141H687.84a9.381 9.381 0 0 0-9.368 9.861z" class="prefix__cls-1" data-name="Path 207" transform="translate(27.841 2534.918)"/>
        <circle id="prefix__Ellipse_40" cx="8.524" cy="8.524" r="8.524" class="prefix__cls-4" data-name="Ellipse 40" transform="translate(541.288 3119.195)"/>
        <circle id="prefix__Ellipse_41" cx="8.524" cy="8.524" r="8.524" class="prefix__cls-4" data-name="Ellipse 41" transform="translate(711.775 3127.719)"/>
        <path id="prefix__Path_208" d="M506.12 58.1v64.785h15l19.094-20.458-2.557 20.458h66.318l-4.092-20.458 8.183 20.458h10.57V58.1z" class="prefix__cls-1" data-name="Path 208" transform="translate(84.609 2665.562)"/>
        <ellipse id="prefix__Ellipse_42" cx="5.115" cy="9.377" class="prefix__cls-2" data-name="Ellipse 42" rx="5.115" ry="9.377" transform="translate(575.386 2781.632)"/>
        <ellipse id="prefix__Ellipse_43" cx="5.115" cy="9.377" class="prefix__cls-2" data-name="Ellipse 43" rx="5.115" ry="9.377" transform="translate(706.66 2781.632)"/>
        <path id="prefix__Path_209" d="M716.212 612.438s-77.571-14.491-82.686 11.082 86.1 14.491 86.1 14.491z" class="prefix__cls-2" data-name="Path 209" transform="translate(30.512 2522.953)"/>
        <path id="prefix__Path_210" d="M718.862 426.052S904.693 574.375 870.6 610.177 706.929 635.75 706.929 635.75l8.524-42.622 75.014-8.524L752.96 547.1l-34.1 3.41z" class="prefix__cls-3" data-name="Path 210" transform="translate(26.157 2533.738)"/>
        <path id="prefix__Path_211" d="M427.869 687.3l23.868 18.753s17.049 52.851 42.622 37.507-23.868-69.9-23.868-69.9l-28.983-10.229z" class="prefix__cls-2" data-name="Path 211" transform="translate(42.668 2519.693)"/>
        <path id="prefix__Path_212" d="M440.858 397.058l-23.8 7.163S251.618 526.628 244.8 560.725s32.392 52.851 32.392 52.851l148.323 69.9 15.344-40.917-69.9-35.8s5.115-10.229-15.344-11.934-23.868-23.868-23.868-23.868 40.917-63.08 63.08-49.441 28.983 23.868 28.983 23.868z" class="prefix__cls-3" data-name="Path 212" transform="translate(53.546 2535.454)"/>
        <path id="prefix__Path_213" d="M786.09 732.46v5.711a12.554 12.554 0 0 1-.856 4.582 12.842 12.842 0 0 1-.913 1.882 12.643 12.643 0 0 1-10.867 6.172H353.325a12.643 12.643 0 0 1-10.867-6.172 12.879 12.879 0 0 1-.913-1.882 12.553 12.553 0 0 1-.856-4.582v-5.711a12.632 12.632 0 0 1 12.635-12.635h24.217v-2.663a.526.526 0 0 1 .527-.527H390.7a.526.526 0 0 1 .527.527v2.663h7.894v-2.663a.526.526 0 0 1 .527-.527h12.635a.526.526 0 0 1 .527.527v2.663h7.9v-2.663a.526.526 0 0 1 .527-.527h12.643a.526.526 0 0 1 .527.527v2.663h7.893v-2.663a.526.526 0 0 1 .527-.527h12.635a.526.526 0 0 1 .527.527v2.663h7.894v-2.663a.526.526 0 0 1 .527-.527h12.635a.526.526 0 0 1 .527.527v2.663h7.9v-2.663a.526.526 0 0 1 .527-.527h12.635a.526.526 0 0 1 .527.527v2.663h7.894v-2.663a.526.526 0 0 1 .527-.527h98.978a.526.526 0 0 1 .527.527v2.663h7.9v-2.663a.526.526 0 0 1 .527-.527h12.635a.532.532 0 0 1 .527.527v2.663h7.894v-2.663a.526.526 0 0 1 .527-.527h12.635a.526.526 0 0 1 .527.527v2.663h7.894v-2.663a.526.526 0 0 1 .527-.527h12.635a.526.526 0 0 1 .527.527v2.663h7.9v-2.663a.526.526 0 0 1 .527-.527h12.641a.524.524 0 0 1 .517.527v2.663h7.9v-2.663a.526.526 0 0 1 .527-.527h12.636a.526.526 0 0 1 .527.527v2.663h7.894v-2.663a.526.526 0 0 1 .527-.527h12.635a.526.526 0 0 1 .527.527v2.663h36.852a12.632 12.632 0 0 1 12.638 12.635z" class="prefix__cls-5" data-name="Path 213" transform="translate(47.826 2516.545)"/>
        <path id="prefix__Path_214" d="M753.275 477.618H596.68v-3.228h-71.007v3.228h-157.24a10.592 10.592 0 0 0-10.592 10.592v214.428a10.593 10.593 0 0 0 10.592 10.593h384.842a10.592 10.592 0 0 0 10.592-10.593V488.211a10.592 10.592 0 0 0-10.592-10.593z" class="prefix__cls-5" data-name="Path 214" transform="translate(46.811 2530.878)"/>
        <circle id="prefix__Ellipse_44" cx="23.521" cy="23.521" r="23.521" data-name="Ellipse 44" transform="translate(587.274 3112.524)" style="fill:none;stroke:#d0cde1;stroke-miterlimit:10;stroke-width:2px"/>
        <path id="prefix__Path_215" d="M184.8 705.043c-18.733 30.583-12.288 68.625-12.288 68.625s36.817-11.543 55.55-42.126 12.288-68.625 12.288-68.625-36.818 11.542-55.55 42.126z" class="prefix__cls-5" data-name="Path 215" transform="translate(57.84 2519.724)"/>
        <path id="prefix__Path_216" d="M166.411 774.5l-1.065-.169c-.385-.061-38.723-6.413-61.683-33.884s-22.408-66.329-22.4-66.718l.023-1.078 1.065.169c.385.061 38.723 6.413 61.683 33.885 22.96 27.471 22.408 66.328 22.4 66.717z" class="prefix__cls-4" data-name="Path 216" transform="translate(63.175 2519.148)"/>
        <path id="prefix__Path_217" d="M168.936 774.811l-1.029-.323c-.372-.117-37.371-12-56.072-42.531s-12.478-68.891-12.414-69.275l.18-1.063 1.029.323c.372.117 37.371 12 56.071 42.532 18.7 30.53 12.478 68.89 12.414 69.273zM101.12 664.1c-.852 6.438-4.247 39.831 12.32 66.878s47.858 39.193 53.978 41.361c.852-6.438 4.247-39.831-12.32-66.877-16.567-27.047-47.858-39.194-53.978-41.362z" class="prefix__cls-5" data-name="Path 217" transform="translate(62.162 2519.801)"/>
        <circle id="prefix__Ellipse_46" cx="20.698" cy="20.698" r="20.698" class="prefix__cls-5" data-name="Ellipse 46" transform="translate(210.821 3152.897)"/>
    </g>
</svg>
